<?xml version="1.0" encoding="utf-8"?>
<!-- Generator: Adobe Illustrator 23.0.3, SVG Export Plug-In . SVG Version: 6.00 Build 0)  -->
<svg version="1.1" id="圖層_1" xmlns="http://www.w3.org/2000/svg" xmlns:xlink="http://www.w3.org/1999/xlink" x="0px" y="0px"
	 viewBox="0 0 24 24" style="enable-background:new 0 0 24 24;" xml:space="preserve">
<style type="text/css">
	.st0{fill:#AA0601;}
</style>
<g>
	<g>
		<polygon class="st0" points="19,9 20.3,6.3 23,5 20.3,3.8 19,1 17.8,3.8 15,5 17.8,6.3 		"/>
		<polygon class="st0" points="19,15 17.8,17.8 15,19 17.8,20.3 19,23 20.3,20.3 23,19 20.3,17.8 		"/>
		<path class="st0" d="M11.5,9.5L9,4L6.5,9.5L1,12l5.5,2.5L9,20l2.5-5.5L17,12L11.5,9.5z M10,13l-1,2.2L8,13l-2.2-1L8,11l1-2.2
			l1,2.2l2.2,1L10,13z"/>
	</g>
</g>
</svg>
